<?xml version="1.0" encoding="UTF-8"?>
<svg width="24px" height="24px" viewBox="0 0 24 24" version="1.1" xmlns="http://www.w3.org/2000/svg" xmlns:xlink="http://www.w3.org/1999/xlink">
    <title>E161D7D8-5081-4D03-8563-ABAFC0B28F94</title>
    <g id="好友" stroke="none" stroke-width="1" fill="none" fill-rule="evenodd">
        <g id="朋友_KOKO-好友_New-Comer" transform="translate(-20.000000, -31.000000)">
            <g id="ic_nav_pink_withdraw" transform="translate(20.000000, 31.000000)">
                <g id="ATM" transform="translate(2.000000, 8.500000)" fill="#EC008C">
                    <path d="M3.22273488,3.98830996 L3.83391281,2.29555907 L4.43944306,3.98830996 L3.22273488,3.98830996 Z M3.10536121,0.316986121 L0.634539146,6.77916762 L2.20885231,6.77916762 L2.75242171,5.28228505 L4.90885587,5.28228505 L5.45217972,6.77916762 L7.02657473,6.77916762 L4.55583452,0.316986121 L3.10536121,0.316986121 Z" id="Fill-3"></path>
                    <polygon id="Fill-5" points="6.54982811 1.64429893 8.50671068 1.64429893 8.50671068 6.77911032 9.97617331 6.77911032 9.97617331 1.64429893 11.9331377 1.64429893 11.9331377 0.317010676 6.54982811 0.317010676"></polygon>
                    <polygon id="Fill-7" points="15.5928715 4.66945521 13.7054801 0.319999695 12.1531028 0.319999695 12.1531028 6.78218119 13.6227292 6.78218119 13.6227292 3.54450147 15.004448 6.78218119 16.1736829 6.78218119 17.5555655 3.54450147 17.5555655 6.78218119 19.0250281 6.78218119 19.0250281 0.319999695 17.4724053 0.319999695"></polygon>
                </g>
                <circle id="Oval" stroke="#EC008C" stroke-width="1.5" stroke-linecap="round" stroke-linejoin="round" cx="12" cy="12" r="11.25"></circle>
            </g>
        </g>
    </g>
</svg>