<?xml version="1.0" encoding="UTF-8"?>
<svg width="24px" height="24px" viewBox="0 0 24 24" version="1.1" xmlns="http://www.w3.org/2000/svg" xmlns:xlink="http://www.w3.org/1999/xlink">
    <title>794E2F4A-0B6F-4A4A-9381-35B0AF8A7877</title>
    <g id="好友" stroke="none" stroke-width="1" fill="none" fill-rule="evenodd">
        <g id="朋友_KOKO-好友_New-Comer" transform="translate(-251.000000, -545.000000)">
            <g id="btn" transform="translate(92.000000, 537.000000)">
                <g id="ic_arrow_white" transform="translate(158.500000, 8.000000)">
                    <g id="ic_tabbar_friends_on" transform="translate(4.500000, 4.500000)" fill="#FFFFFF">
                        <path d="M8.57885903,9.08438065 C7.91299647,9.60659148 7.21889368,9.77515763 6.51609709,9.58576139 C5.96757151,9.43785028 5.60266575,9.12102293 5.5907045,9.11052037 C5.35270473,8.89545119 4.98546507,8.91283877 4.76887886,9.14996333 C4.55159248,9.38784641 4.56822154,9.75689484 4.80610462,9.97429792 C4.86054291,10.0240684 5.36139852,10.4673933 6.15288342,10.6958824 C6.41632274,10.7719093 6.72877402,10.8282731 7.07664228,10.8282731 C7.72500057,10.8282731 8.49606382,10.6322836 9.29898484,10.0026548 C9.55250507,9.80380629 9.59690758,9.43703341 9.39805903,9.18345484 C9.19921048,8.92987626 8.83237926,8.8855321 8.57885903,9.08438065" id="Fill-1"></path>
                        <path d="M5.11914521,6.3261553 C5.15275341,6.33222345 5.18717848,6.33537422 5.22131182,6.33537422 L5.22137017,6.33537422 C5.33088857,6.33537422 5.43638099,6.30415827 5.52635296,6.24511052 C5.64754088,6.16558277 5.73191148,6.03821001 5.75787615,5.89566687 C5.78401586,5.75248191 5.75519216,5.60783827 5.67688971,5.48845912 C5.59736196,5.3672712 5.4699892,5.2829006 5.32738772,5.25693593 C5.29377951,5.25075109 5.25935444,5.24771701 5.22516276,5.24771701 C5.11564435,5.24771701 5.01021028,5.27887462 4.92023831,5.33792237 C4.79905039,5.41745012 4.71462145,5.54476454 4.68865677,5.68736602 C4.66257541,5.83060932 4.69134076,5.97519462 4.76970156,6.09457377 C4.84922931,6.21576169 4.97660207,6.30019063 5.11914521,6.3261553" id="Fill-3" stroke="#FFFFFF" stroke-width="0.4"></path>
                        <path d="M8.74119366,6.32187843 C8.77486022,6.32794658 8.80922694,6.33109734 8.84336027,6.33109734 L8.84341862,6.33109734 C8.95299537,6.33109734 9.05842945,6.29988139 9.14840141,6.24083364 C9.26964768,6.16130589 9.35401828,6.03387478 9.3799246,5.89138999 C9.40606432,5.74826338 9.37729896,5.60361974 9.29899651,5.48418225 C9.21941042,5.36293598 9.092096,5.27856538 8.94949452,5.25260071 C8.91582797,5.24647421 8.88146124,5.24338179 8.84732791,5.24338179 C8.73769281,5.24338179 8.63225874,5.27459774 8.54228677,5.33364549 C8.42191572,5.41258977 8.3378952,5.53879558 8.31123036,5.68017176 C8.28030614,5.81565484 8.30953828,5.96496629 8.39175002,6.09029689 C8.47121942,6.21142646 8.59859218,6.29585541 8.74119366,6.32187843" id="Fill-5" stroke="#FFFFFF" stroke-width="0.4"></path>
                        <path d="M6.72,0.906666667 C8.04792079,0.906666667 9.28368646,1.3012296 10.3164566,1.97951501 C9.8988426,2.21311525 9.57304014,2.59082746 9.40518043,3.04508158 C8.6229769,2.56780045 7.70354106,2.29333333 6.72,2.29333333 C3.86284689,2.29333333 1.54666667,4.60951356 1.54666667,7.46666667 C1.54666667,10.3238198 3.86284689,12.64 6.72,12.64 C9.57715311,12.64 11.8933333,10.3238198 11.8933333,7.46666667 C11.8933333,7.36437228 11.8903643,7.26277134 11.8845078,7.16194531 C12.2528691,7.54742073 12.7728173,7.78666667 13.3486444,7.78666667 L13.2724942,7.78326649 C13.1073228,11.2592222 10.2368471,14.0266667 6.72,14.0266667 C3.09701204,14.0266667 0.16,11.0896546 0.16,7.46666667 C0.16,3.84367871 3.09701204,0.906666667 6.72,0.906666667 Z" id="Combined-Shape" fill-rule="nonzero"></path>
                        <path d="M13.9962798,3.10609813 L15.3577981,3.10609813 C15.7124764,3.10609813 16,3.3936217 16,3.74829999 C16,4.10297829 15.7124764,4.39050186 15.3577981,4.39050186 L13.9962798,4.39050186 L13.9962798,4.39050186 L13.9962798,5.75236468 C13.9962798,6.11004379 13.7063236,6.4 13.3486444,6.4 C12.9909653,6.4 12.7010091,6.11004379 12.7010091,5.75236468 L12.7010091,4.39050186 L12.7010091,4.39050186 L11.3088685,4.39050186 C10.9541902,4.39050186 10.6666667,4.10297829 10.6666667,3.74829999 C10.6666667,3.3936217 10.9541902,3.10609813 11.3088685,3.10609813 L12.7010091,3.10609813 L12.7010091,3.10609813 L12.7010091,1.71430199 C12.7010091,1.35662288 12.9909653,1.06666667 13.3486444,1.06666667 C13.7063236,1.06666667 13.9962798,1.35662288 13.9962798,1.71430199 L13.9962798,3.10609813 L13.9962798,3.10609813 Z" id="ic_cal_plus"></path>
                    </g>
                    <g id="Group-2"></g>
                </g>
            </g>
        </g>
    </g>
</svg>