<?xml version="1.0" encoding="UTF-8"?>
<svg width="245px" height="172px" viewBox="0 0 245 172" version="1.1" xmlns="http://www.w3.org/2000/svg" xmlns:xlink="http://www.w3.org/1999/xlink">
    <title>D30EC4BE-48DB-4A85-A93A-402A28F60D16</title>
    <g id="好友" stroke="none" stroke-width="1" fill="none" fill-rule="evenodd">
        <g id="朋友_KOKO-好友_New-Comer" transform="translate(-65.000000, -222.000000)">
            <g id="No-friends" transform="translate(187.000000, 308.500000) scale(-1, 1) translate(-187.000000, -308.500000) translate(64.000000, 222.000000)">
                <g id="Girl" transform="translate(139.000000, 0.000000)">
                    <path d="M2.05030065,99.2197778 L104.050301,99.2197778 C105.15487,99.2197778 106.050301,98.3243473 106.050301,97.2197778 L106.050301,91.2197778 C106.050301,90.1152083 105.15487,89.2197778 104.050301,89.2197778 L2.05030065,89.2197778 C0.945731154,89.2197778 0.0503006536,90.1152083 0.0503006536,91.2197778 L0.0503006536,97.2197778 C0.0503006536,98.3243473 0.945731154,99.2197778 2.05030065,99.2197778 Z" id="Fill-1" fill="#EFEFEF"></path>
                    <g transform="translate(4.000000, 0.105614)">
                        <path d="M52.3217895,50.3536863 C53.6644954,50.315281 62.2229529,49.6550065 63.5678745,49.6550065 C63.4999268,50.2044967 64.8684824,50.7443856 64.7709922,51.087817 C64.6269725,51.5966863 64.4630118,52.0856144 64.4822144,52.615902 C64.5811817,55.3567059 63.7037699,57.8537843 62.8152797,60.4047778 C62.2362471,62.067281 61.1926588,63.3501634 60.2133255,64.659634 C59.4334039,65.7032222 58.1453516,66.3767908 57.0493255,67.1714837 C56.4954039,67.5717843 55.9067699,68.0459412 55.2679137,68.1870065 C53.9739529,68.4713529 52.8461686,69.4026797 51.428868,69.1744641 C49.674783,69.8664967 47.8438876,69.4846601 46.0499203,69.5127255 C45.2500575,69.5260196 44.3357176,69.9292745 43.6193124,69.179634 C42.7684889,69.3266078 41.9856131,69.012719 41.1953516,68.7977974 C40.4265085,68.5880458 39.641417,68.3856797 38.9264889,68.0474183 C38.1509987,67.6803529 37.3666458,67.2519869 36.733698,66.6855098 C35.7366392,65.7933268 34.478868,65.1943529 33.8385346,63.8760196 C33.3865346,62.9446928 32.3754431,62.2305033 32.1051294,61.2799739 C31.6346654,59.6278105 30.6361294,58.0783072 30.8739464,56.2496275 C32.3887373,55.2828497 34.1406065,54.9268627 35.8215739,54.4379346 C37.2455216,54.0236013 43.0461882,52.7274248 44.5499007,52.5479542" id="Fill-2" fill="#FFD4B3"></path>
                        <path d="M59.5479997,84.216 C58.8537514,83.8334249 58.9135749,82.9744772 58.1646729,83.215987 C58.2414834,83.7374118 54.5811697,89.9679216 54.1845618,90.5484314 C53.544967,91.4864053 39.6450773,96.9593636 38.3031099,97.4305662 C37.1295348,97.8412067 15.7203332,105.49195 14.808209,105.761525 C12.8273855,106.344989 10.3103659,106.655185 8.36794756,107.308813 C7.85981684,107.480159 7.65745083,107.83393 7.60501292,108.38859 C7.55331357,108.930695 7.88492795,109.16408 8.18478416,109.266741 C9.04964037,109.561427 10.6375489,109.684767 11.3930979,109.937355 C11.5481959,109.989054 11.9817319,110.029675 12.0157057,110.202499 C12.0046273,110.398956 11.5393332,110.580643 11.3967907,110.63308 C10.54449,110.950662 10.3487711,111.051845 9.55038547,111.480211 C8.3827188,112.106512 8.23205213,112.294845 7.12125475,112.874616 C6.99200638,112.989832 5.61828089,113.826623 5.48829396,113.941839 C4.58060115,114.483943 3.86788874,114.972871 3.28959462,115.574799 C2.51853579,116.376139 1.82650312,117.150152 1.94319593,118.227714 C1.94319593,118.598473 2.64556847,118.396845 2.84350312,118.260211 C4.08133318,117.407172 5.21724168,116.899041 6.48830704,116.126505 C7.15596717,115.721035 8.56735932,114.803741 8.70768612,114.740224 C8.97726129,114.618362 9.31182991,114.767551 9.3568822,114.88646 C9.45141815,115.136094 9.44920246,115.366525 9.30961423,115.560767 C9.07179723,115.894597 8.41669266,116.204793 8.06882991,116.424146 C6.30366651,117.530512 5.94915671,117.668623 3.84942468,118.875433 C3.40554887,119.129499 2.7386273,119.40129 2.46240508,119.532015 C1.9904639,119.804545 2.24822207,120.340741 2.5495554,120.482545 C3.32356847,120.596283 3.98901292,120.357728 4.75490181,120.119172 C6.11754887,119.694499 9.18996717,118.164198 9.32807828,118.104375 C10.2734378,117.692257 10.6094835,118.154597 10.6537972,118.354009 C10.7697515,118.880603 10.3805293,119.065244 9.95437893,119.23659 C9.68849658,119.343682 9.39528743,119.515767 8.78449658,119.767616 C7.95656847,120.109571 7.95139854,120.08446 7.08506521,120.465558 C6.09391488,120.900571 5.06066651,121.44563 4.02889527,121.975179 C3.71722207,122.135446 3.27925475,122.464845 3.05473187,122.776518 C2.59977762,123.604446 3.34203253,123.919813 4.58650965,123.563087 C4.87676455,123.397649 5.51414364,123.295728 5.95432664,123.149492 C6.69288874,122.905028 9.22467959,122.09778 10.031928,121.917571 C11.0408038,121.692309 11.0991502,121.66646 11.9647449,121.592603 C12.0836534,121.583002 12.3310717,121.678277 12.3606142,121.828205 C12.4064051,122.055682 12.3798168,122.295714 12.2505685,122.386558 C11.7852744,122.714479 11.3509998,122.833388 10.8280979,122.980362 C9.70474495,123.297205 8.78375802,123.399865 8.16558155,123.527636 C7.50161423,123.665009 6.91076455,123.734433 6.25639854,123.915381 C5.92256847,124.006963 5.83320246,124.026165 5.3804639,124.258813 C5.01118285,124.512139 5.16480377,124.82012 5.47278416,124.850401 C6.17958808,124.921303 6.76157501,125.008453 7.47207174,125.05129 C8.08433972,125.087479 8.50827436,125.150257 9.11980377,125.167244 C9.6899737,125.182754 10.4735881,125.211558 11.0348953,125.148041 C11.500928,125.094865 11.8576534,125.002545 12.3968038,124.88142 C13.1213332,124.720414 13.4802744,124.684224 14.243209,124.557192 C15.8207776,124.295002 15.9293463,124.170924 17.8651175,123.89544 C18.6546404,123.783179 21.5195227,123.161309 21.6908691,123.13546 C23.8075881,122.820832 24.2994704,122.592616 26.4619802,122.187884 C27.2396861,122.042388 36.7794563,119.130998 38.5682537,118.560828 C39.9205609,118.130985 51.4762546,114.442392 52.8270847,114.008118 C53.8529474,113.67798 54.8477906,113.242967 55.8854703,112.962314 C56.9910978,112.662458 58.0693984,112.213412 59.0472546,111.720052 C60.1189082,111.179425 61.2607252,110.762137 62.2954507,110.139529 C63.2843853,109.544987 64.3516076,109.036118 65.2703788,108.388399 C66.4779278,107.538314 70.9782103,104.444971 72.6924557,102.704949 C74.4067011,100.964928 78.2794115,96.6002092 78.8392415,95.9251634 C79.6309801,94.9702027 80.8623554,93.1929667 81.7102247,92.2823197 C81.8483358,92.1338687 80.7218363,92.5890785 80.7787056,92.363817 C80.7801827,91.8711961 80.9566991,91.4708955 80.2410324,91.102353 C78.065967,89.9812157 59.9379605,84.4301831 59.5479997,84.216 Z" id="Fill-4" fill="#FFD4B3" transform="translate(41.826125, 104.180621) rotate(5.000000) translate(-41.826125, -104.180621) "></path>
                        <path d="M54.4249928,51.1153654 L53.0017837,46.6064438 C49.6494503,34.9674438 54.0712216,33.1875092 54.2632477,21.189568 C54.6059405,-0.210268627 21.6483458,-4.44518366 22.9386137,17.2862673 L23.7717118,30.431934 C23.7717118,42.7925092 33.1167379,46.3760124 39.2431105,44.6529471 L40.4875876,44.0857314 L41.2261497,53.8399209" id="Fill-7" fill="#FFD4B3"></path>
                        <path d="M31.2212753,35.185999 C30.7722296,35.2960447 30.3335237,34.9696003 30.3091512,34.5072604 L30.0004322,30.6512016 C29.9863995,30.2435153 30.3157982,29.9052539 30.7360401,29.894914 C31.1584976,29.8794042 31.5063603,30.2073258 31.5189159,30.6157506 L31.817295,33.514633 L32.0647133,33.4385611 C32.4694453,33.342548 32.8852557,33.5796264 32.9901316,33.9754957 C33.0942688,34.371365 32.8490662,34.7724042 32.4421185,34.8713715 L31.2212753,35.185999 Z" id="Fill-9" fill="#3A345A"></path>
                        <path d="M40.4875137,44.0860268 L42.500834,43.5298895 C43.7453111,43.107432 44.7682196,42.5638503 46.0208209,41.8688634 L47.0260039,41.066785 C47.5437359,40.5121248 47.9890889,40.4833209 47.7401935,41.0660464 L47.3502327,42.0136216 C46.5821281,43.6473209 44.3191739,45.3740791 41.8095399,47.6023209 L41.662566,47.7278765 C40.7098209,48.3733797 40.6485203,47.5543144 40.5451216,46.3851706 L40.4875137,44.0860268 Z" id="Fill-11" fill="#FFB597"></path>
                        <path d="M37.1333984,37.9158892 C36.9945487,37.9144121 36.8520062,37.9085036 36.7065095,37.8989023 C36.2870062,37.8700984 35.9723787,37.5163271 36.0019212,37.110118 C36.0322023,36.7024317 36.3940977,36.3959284 36.813601,36.4254709 C37.6836271,36.4882487 38.306235,36.3530918 38.6821631,36.0318173 C39.0123003,35.7482095 39.1998951,35.2637128 39.2375618,34.5930984 C39.2589801,34.1972291 39.5987186,33.8907258 40.0027121,33.8943856 C40.0137905,33.8943856 40.0256075,33.8951572 40.0374245,33.8958958 C40.4561892,33.9180526 40.7789408,34.2659154 40.7553069,34.6728631 C40.6947448,35.7548565 40.335065,36.5850003 39.6873461,37.1396605 C39.073601,37.6662552 38.2161304,37.9262291 37.1333984,37.9158892" id="Fill-13" fill="#3A345A"></path>
                        <path d="M26.1068105,31.6938281 C26.3128693,32.2529196 26.9332614,32.5394817 27.4923529,32.3334229 C28.052183,32.1273641 28.3380065,31.5069719 28.1319477,30.9471418 C27.9266275,30.3880503 27.3062353,30.1022268 26.7464052,30.3075471 C26.1873137,30.5136059 25.9007516,31.133998 26.1068105,31.6938281" id="Fill-15" fill="#3A345A"></path>
                        <path d="M35.9172784,29.4456451 C36.1225987,30.0047366 36.7437294,30.2912987 37.3028209,30.0852399 C37.862651,29.879181 38.1484745,29.2587889 37.9424157,28.6989588 C37.7363569,28.1398673 37.1159647,27.8540438 36.5568732,28.0601026 C35.9970431,28.2654229 35.7112196,28.885815 35.9172784,29.4456451" id="Fill-17" fill="#3A345A"></path>
                        <path d="M42.7876176,0.718694771 C42.0475784,0.60864902 40.5454102,0.502600953 39.3217163,0.502600953 C36.4850728,0.502600953 33.4780425,1.74086471 30.9972124,2.70321111 C30.5031144,2.89523725 30.0178791,3.09612614 29.5488922,3.31030915 C28.7711863,3.66408039 28.0289314,4.04443987 27.3309902,4.43957059 C18.9992712,9.15898235 13.6867941,17.177551 21.7068399,21.3304856 C23.2231078,22.1155771 24.9794085,22.411002 26.698781,22.3253288 C28.7748791,22.2219301 32.342134,22.0446752 34.9677222,21.9139497 C38.0940556,21.7581131 44.1148137,21.0136425 46.4501471,22.9671392 C46.6554673,23.1392242 46.860049,23.3194333 47.0609379,23.5085052 C51.2301209,27.4184529 47.7514935,23.7529693 48.4967026,25.7293614 C48.4981797,25.7315771 48.7212255,26.490819 48.9464869,27.2633549 C49.2478203,28.2973418 49.8327614,29.2249758 50.6348399,29.9443353 L50.6621667,29.9687078 C51.5011732,30.7213026 52.6666242,31.0735967 53.7523105,30.7700477 C55.3490817,30.3232176 56.773768,28.8756359 57.261219,27.0247993 C60.6763301,14.0534333 57.7324216,9.25794967 51.4635065,4.22095621 C49.5469379,2.68105425 44.9242778,1.03479935 42.7876176,0.718694771 Z" id="Fill-19" fill="#517399"></path>
                        <path d="M55.6532954,8.28814379 C59.8948575,14.8613464 63.6585699,18.6841438 68.2790144,20.137634 C71.9489294,21.2920065 73.5309294,21.7321895 76.4312627,22.6310196 C77.7946484,23.0534771 78.1558052,24.5933791 77.4807595,25.8511503 C74.6240013,31.1710131 71.7938314,35.4251307 67.0397072,39.9207582 C64.5566614,42.2686471 58.0602181,45.3595295 53.5897018,45.0596733 C53.289107,45.0389935 52.9700482,45.0072354 52.7314926,44.824072 C52.4737345,44.6276145 52.361473,44.2974772 52.2706299,43.9872811 C51.6746103,41.9540197 50.1613477,34.7456536 50.1679729,32.6274575" id="Fill-21" fill="#517399"></path>
                        <path d="M51.4332255,32.7234458 C48.9878464,32.7115797 46.9250425,30.4833379 46.8238595,27.7462268 C46.723415,25.0091157 48.6237353,22.7985993 51.0691144,22.8111017 C53.5137549,22.8229719 55.5780359,25.0512137 55.6784804,27.7883248 C55.7242712,29.015815 55.3660686,30.1376908 54.7375523,31.0003314 C53.9650163,32.0609065 52.7818399,32.7300438 51.4332255,32.7234458" id="Fill-23" fill="#FFD4B3"></path>
                        <path d="M56.631601,89.7223206 C66.2277382,93.646301 75.7003817,97.5427817 85.2972575,101.466762 C88.6259569,94.6254614 91.9960157,87.6571281 93.1762379,80.1415203 C94.3571987,72.6251739 93.0432967,64.3429386 87.9390941,58.7010627 C81.5904144,51.6817686 73.0245712,50.0288667 63.5672837,49.6544157 C63.1123294,55.7874353 62.655898,63.2092458 57.6262902,66.7484353 C54.5738131,68.8969124 49.8854209,69.2565922 46.1527281,69.1768275 C43.8122248,69.1273438 41.3734928,68.9013438 39.3815908,67.6708993 C35.434715,65.2329059 34.1835908,59.6309124 33.7891987,55.0089908 C24.5808065,57.4196575 23.4212379,59.1368144 20.020898,64.5504745 C17.3783229,68.7565856 16.7402052,74.2020039 16.0481725,79.1193503 C15.9979503,79.4760758 15.0836105,89.1202196 15.5053294,89.1143111 C22.4537216,89.0138667 27.0084601,89.1985072 36.2958784,89.1143111 C44.2276432,89.041849 56.8243595,89.1145327 56.8243595,89.1145327 C56.8243595,89.1145327 56.6781507,89.6369976 56.631601,89.7223206 Z" id="Fill-25" fill="#D08283"></path>
                        <polygon id="Fill-27" fill="#963637" points="49.7548431 89.1145327 64.7759667 74.8625078 56.8243595 89.1145327"></polygon>
                        <path d="M6.40617059,83.3495908 C6.51473922,82.4633163 6.81016405,81.8074732 7.50736667,81.2949111 C8.0989549,80.859898 9.31536667,80.9758523 9.93575882,81.4965386 C10.2622033,81.769068 10.4638307,82.1405647 11.0753601,81.6036301 C11.7489288,81.0113033 12.7378634,80.5748131 13.7194124,81.2771856 C14.2268046,81.6405582 14.6802817,81.2727542 15.0665497,81.0600484 C15.8752752,80.6139569 16.5769092,80.8266627 17.2659876,81.2528131 C17.5392556,81.4219438 17.924785,81.9145647 17.9602359,81.8864993 C18.353151,81.5718719 18.6877196,81.1841268 19.0385366,80.8163229 C19.0385366,80.8163229 19.5126935,80.5740745 19.8635105,80.7793948 C20.9853863,81.1700941 21.9661967,81.7528196 22.599883,82.804532 C23.9448046,85.4256889 23.3849745,89.4419895 22.9026935,90.3127542 C22.7542425,90.5801137 22.6700464,90.8829242 22.5193797,91.1510222 C22.1663471,91.7817542 21.4536346,92.4545843 21.0348699,92.5698 C20.3066477,92.7780745 19.5104778,92.9472052 19.2017588,91.8903229 C19.1751706,91.7994797 18.6611314,91.7507346 18.4373471,91.8408392 C18.0702817,91.9878131 17.7659941,92.284715 17.4144386,92.4811725 C17.2069026,92.5978654 16.9240333,92.760349 16.7379157,92.7020026 C16.1574059,92.5195778 15.5791118,92.0077542 15.0539941,92.0720092 C14.5813144,92.129617 14.190615,92.6022967 13.5303405,92.6495647 C12.7585431,92.7042183 12.2873405,92.2448327 11.6684255,92.0742248 C11.2688634,91.9641791 11.0783144,91.8918 10.6277915,92.2337542 C9.56500065,93.0387869 8.16542549,92.9833948 7.6587719,92.2485255 C7.1676281,91.5358131 6.77692876,90.707885 6.54723595,89.8733098 C6.25845817,88.8238131 6.01768693,87.7418196 6.01325408,86.6310222 C6.01251699,86.4906954 6.28873922,84.3104601 6.40617059,83.3495908" id="Fill-29" fill="#FFD4B3"></path>
                    </g>
                </g>
                <g id="Man" transform="translate(0.000000, 48.000000)">
                    <path d="M91.9812737,119.67588 C92.2560157,118.222134 95.0671539,110.160581 95.6843613,108.816885 C96.4331677,107.186134 96.6401862,106.515825 97.1588866,104.808885 C97.5059696,103.668359 97.6468037,103.272793 97.8515134,102.150737 C98.0770018,100.914783 98.1147115,100.380691 97.9284719,98.9407972 C97.7745548,97.7479401 97.6190986,97.3823871 97.0634581,95.9186359 C96.5170525,94.4795115 92.4674949,85.8078249 91.547071,83.4490461 C90.6812876,81.2295622 88.559541,77.2777419 88.2186147,76.4304286 C87.7345456,75.2321843 85.0833244,73.6399124 84.6677484,72.4116544 C84.6000249,72.2115622 83.7834949,72.9842258 83.6057207,72.8210737 C83.1547438,72.575576 82.8746147,72.2161797 82.1827576,72.6902442 C80.0787115,74.1293687 70.627435,88.1365899 70.2387945,88.3874747 C69.543859,88.8353733 68.7865871,88.3551521 68.6372876,89.1609078 C69.1529097,89.3486866 74.5923382,95.8355207 74.9278774,96.4858203 C75.470435,97.5370737 68.1693797,114.992806 67.9361954,116.456558" id="Fill-1" fill="#FF9B73"></path>
                    <path d="M55.2570475,60.7845341 C57.6458401,58.8867369 61.2405728,57.7816124 64.2742779,58.1109949 C71.0119968,58.8444097 74.3035129,61.9058198 78.3977065,66.050806 C85.1477387,72.8831839 89.6221074,77.7084834 95.5733101,85.246571 C96.0550705,85.8560825 96.5568401,86.5340871 96.5469827,87.3113682 C96.5414484,87.8508475 96.2851765,88.3518475 96.0289046,88.8274512 C91.0158263,98.1632899 86.4668078,99.7571009 78.0290751,106.169285 C69.3389184,95.7660318 58.3192272,84.3238382 50.1831719,73.1256032 C47.1186834,68.9075065 48.2630567,66.3432484 55.2570475,60.7845341" id="Fill-3" fill="#86A9AF"></path>
                    <path d="M85.0689341,122.634094 C85.5026714,113.01567 85.5026714,113.01567 82.8552982,94.9181028 C79.5091415,72.0491074 73.1154272,64.9081258 64.3121415,60.7315866 C56.8233074,57.1776419 42.3066207,55.4237571 34.6338558,59.5548908 C27.1057728,63.6082963 17.9187728,74.302453 16.1241,82.2345682 C11.0679249,104.593329 11.4861184,98.8669922 9.69452396,123.71613 C40.0840073,123.71613 55.584576,122.634094 85.0689341,122.634094 Z" id="Fill-5" fill="#A1D0C5"></path>
                    <path d="M58.7712816,59.7848456 L62.0920419,41.5118134 C63.3156825,40.8715184 71.9550465,41.5949286 74.8533046,38.6620392 C78.6250419,34.8456659 77.3344475,14.5932604 72.5984198,11.2240161 C68.5403968,7.74318203 60.5898115,12.6315876 52.7131065,14.1515184 C49.2661341,14.8164401 50.9630696,22.1228825 48.0948253,32.4576429 C46.0300281,39.8972235 43.3049267,51.2362926 41.5079452,57.2113525 C40.7360512,59.7763802 31.7696134,60.0572788 31.8788945,60.4551544 C34.1068438,68.950606 38.3672677,75.2296521 52.2413507,74.8410115 C60.4482078,74.6116751 65.8422309,70.2034908 69.6232032,63.6096843 C68.8859406,63.4919378 61.3409267,62.3998963 60.5482539,62.342947 C58.8136088,62.2190438 58.5742677,61.5187212 58.7712816,59.7848456" id="Fill-7" fill="#FFB597"></path>
                    <path d="M74.770959,25.4120129 C74.8771618,25.4389484 74.9887516,25.4451051 75.1034198,25.4274046 C75.5328484,25.3566028 75.7044659,24.9548793 75.6267378,24.5346857 L75.0172263,20.3142802 C74.9394982,19.8948562 74.6416687,19.6154968 74.2107009,19.6847594 C73.7812724,19.7547917 73.6250465,20.1503585 73.7027747,20.5705521 L74.3115166,24.7909576 C74.3700051,25.1003309 74.4785166,25.3365935 74.770959,25.4120129" id="Fill-9" fill="#3A345A"></path>
                    <path d="M68.0791843,20.1458949 C68.139212,20.7638719 68.6886959,21.216388 69.3074424,21.1555908 C69.9246498,21.0955631 70.3771659,20.5460793 70.3171382,19.9281023 C70.2571106,19.3093558 69.7076267,18.8568396 69.0888802,18.9168673 C68.4709032,18.9768949 68.0191567,19.5271484 68.0791843,20.1458949" id="Fill-11" fill="#3A345A"></path>
                    <path d="M70.8178304,31.4717272 C69.7288673,30.7229207 68.9877567,29.5146719 68.896176,28.1494276 C68.8730885,27.7977272 69.1409041,27.5014369 69.4956829,27.4875843 C69.8504618,27.4745014 70.1575263,27.7477041 70.1813834,28.0994046 C70.2821991,29.6101005 71.5212313,30.846824 73.0634802,30.9791926 L73.1796876,30.9938147 C73.5344664,31.0253677 73.80613,31.3332018 73.783812,31.6833631 C73.7630332,32.034294 73.4575078,32.2936442 73.102729,32.2628608 L72.5594018,32.2166857 C71.7267106,32.0258286 71.4442728,31.9034645 70.8178304,31.4717272" id="Fill-13" fill="#3A345A"></path>
                    <path d="M61.4091889,18.3925488 C61.8863318,17.1250419 62.7828986,16.2600281 63.9849908,15.6343553 C70.7365622,12.1219682 75.5964931,9.470747 80.9335668,4.61851198 C81.2737235,4.30836912 82.7936544,3.16861336 82.7936544,1.47552581 C82.7928848,0.031783871 81.0282258,0.0102354839 78.4324147,0.000803444452 C73.2377143,-0.019778341 60.9666774,1.60404654 55.6380691,4.40302811 C49.5999032,7.57602811 47.2580553,9.74625853 43.5763594,13.8512263 C41.1614009,16.5432355 39.7145806,19.0582401 39.3290184,22.654512 C38.7733779,27.8330512 39.153553,29.0882447 40.5642028,31.6879037 C45.3094654,40.438088 52.6312995,34.3498991 54.4906175,31.7771756 C57.2311106,27.9838899 60.0354793,22.0473092 61.4091889,18.3925488" id="Fill-15" fill="#394877"></path>
                    <path d="M57.8851811,40.7443829 C60.7511166,41.3431203 62.8720935,41.3161848 66.1828493,41.0830005 C67.2464161,41.0083507 63.4900705,42.6837378 62.4580567,42.9807977 C59.8076051,43.7449959 59.3527802,44.1698069 55.888877,44.039747 C54.8191535,43.9997286 56.8316189,40.5250512 57.8851811,40.7443829" id="Fill-17" fill="#FF9B73"></path>
                    <path d="M119.215767,55.3512875 C119.98122,55.1934841 121.93841,53.826807 122.631745,53.4954914 C123.495737,53.0834889 124.090534,52.612935 124.888119,52.1152475 C125.572886,51.6875361 126.077,51.804639 126.675367,52.0616943 C126.789614,52.1102492 126.920998,52.2323504 126.96027,52.3194636 C127.344425,53.1748863 127.205901,54.0503023 126.474721,54.7314987 C125.924909,55.2427531 125.494341,55.6269078 124.935246,56.201712 C124.893118,56.2445545 124.743883,56.4594813 124.7346,56.5287434 C124.713179,56.6865467 124.888119,56.8107901 124.984515,56.8215007 C125.238714,56.8500624 125.500768,56.7972233 125.759251,56.792225 C128.104166,56.741528 130.436229,56.3159587 132.798281,56.6586991 C133.505897,56.7622352 133.870058,56.9186105 134.442006,57.2177943 C135.209602,57.6476478 135.192465,58.2681506 134.343468,58.7030024 C133.833642,58.9643419 133.168869,59.0043283 132.599063,59.1478508 C132.288454,59.269952 130.711135,59.3227912 129.790734,59.472026 C129.04456,59.5619954 128.741092,59.605552 128.487607,60.1153782 C128.419773,60.2524743 128.460473,60.6030692 128.510456,60.6159219 C128.622561,60.9629465 129.606511,61.1700188 130.583321,61.2035788 C130.908211,61.2157175 131.254521,61.2799813 131.592977,61.3178256 C133.046767,61.4820553 135.033947,61.746965 135.974341,62.1189811 C136.167133,62.1953836 136.417761,62.6088142 136.429186,62.8166005 C136.48631,63.1800481 136.244249,63.6963007 135.484508,63.667739 C134.856865,63.6077595 134.51341,63.6270386 134.082129,63.6077595 C133.567304,63.5863382 132.446258,63.5706293 131.690087,63.5906224 C130.552617,63.5306429 129.886416,63.5042233 128.991721,63.4742335 C128.652551,63.4628089 128.411204,63.9526419 128.618277,64.2346887 C128.824635,64.5160214 128.923887,64.6802511 129.505831,64.6938179 C131.138132,64.7480851 131.492297,64.7530834 133.115316,64.7323762 C133.306679,64.72952 133.954315,64.6881056 134.631942,64.6766809 C135.187466,64.5909958 135.470941,64.6531175 135.809397,64.6245558 C136.080019,64.6366945 136.347785,64.6595439 136.461318,64.9701523 C136.640543,65.4592713 136.519156,65.975524 135.900795,66.1797401 C135.480938,66.2932728 135.046086,66.3446839 134.644794,66.4189443 C134.223509,66.498203 133.851493,66.5460438 133.429494,66.6295868 C132.508379,66.8123816 131.657955,67.0351629 130.735412,67.2079611 C130.604743,67.2329526 130.423376,67.3050709 130.291992,67.3422011 C129.840717,67.4700147 129.675059,67.6992223 129.79002,68.1926255 C129.847858,68.4403983 130.42766,68.4639616 131.120995,68.3832749 C131.442314,68.335434 132.034255,68.2283277 132.242042,68.2276136 C133.550167,67.9748426 134.047141,67.7877635 135.508786,67.475013 C135.877945,67.3957543 136.212117,67.2943602 136.445609,67.3586241 C137.002562,67.5149993 136.829764,68.0519592 136.630546,68.5903471 C136.518441,68.9737879 136.248533,69.2479802 135.88223,69.413638 C135.403107,69.6299928 135.167473,69.7228184 134.713342,69.9484557 C133.367372,70.4547118 132.413412,70.9930997 131.006034,71.4729362 C130.210591,71.6585872 129.554386,71.9513446 128.663261,72.2026875 C127.431538,72.6254006 125.399374,73.1773554 124.778871,73.3872838 C123.544292,73.7914318 120.323246,74.5133286 119.949802,74.6004418 C119.178636,74.7803805 118.431748,75.0195847 117.624166,75.1031276 C116.90584,75.1773881 114.708731,75.7357692 114.350282,75.8750074 C113.599109,76.1663367 103.634314,77.4906095 103.00667,77.6091405 C102.228364,77.7562332 69.2031905,82.167587 68.3256324,82.2197121 C68.0921405,82.2804057 67.7208385,82.100467 67.7215525,82.5674507 C67.5144803,82.5795895 67.307408,82.5917282 67.0996216,82.6038669 C66.9896591,82.5060431 66.8796966,82.4082193 66.7704481,82.3111095 C66.7040422,81.9776517 66.7218932,81.6641871 66.5183911,81.3178766 C64.292007,77.5248835 63.9642616,60.850566 63.5851051,59.7030999" id="Fill-19" fill="#FFB597" transform="translate(100.203383, 67.217501) rotate(5.000000) translate(-100.203383, -67.217501) "></path>
                    <path d="M2,124 L118,124 C119.104569,124 120,123.104569 120,122 L120,116 C120,114.895431 119.104569,114 118,114 L2,114 C0.8954305,114 -1.3527075e-16,114.895431 0,116 L0,122 C1.3527075e-16,123.104569 0.8954305,124 2,124 Z" id="Fill-21" fill="#EFEFEF"></path>
                    <path d="M14.6911323,80.2744346 C14.6911323,80.2744346 12.5401415,91.0624806 11.1987544,105.459882 L58.094971,88.5443977 L14.6911323,80.2744346 Z" id="Fill-23" fill="#86A9AF"></path>
                    <path d="M16.0321336,66.0186392 C22.0602949,59.9296806 26.3718203,59.0831369 33.6951935,58.2958512 C45.7653687,56.9960217 53.0607281,56.3680401 65.2017051,56.412676 C66.1836959,56.416524 67.250341,56.4534641 68.0106912,57.0745194 C68.5401659,57.5054871 68.8341475,58.1542475 69.1035023,58.7814594 C74.3928618,71.0886668 72.3888618,76.8428558 72.0910323,90.2359479 C54.9600645,90.6453673 38.8149355,92.5416253 21.3338065,91.7751184 C14.749235,91.4872935 11.5731567,88.3366115 11.5800716,77.0429479 C11.5823917,73.1857866 13.318576,68.7591323 16.0321336,66.0186392 Z" id="Fill-24" fill="#A1D0C5"></path>
                    <path d="M55.0638816,29.0795484 C52.6258355,28.3392074 51.2290382,25.4994378 51.9439829,22.7366267 C52.6589276,19.9730461 55.2147203,18.3330599 57.6527664,19.0734009 C60.0908124,19.8137419 61.4883793,22.6535115 60.772665,25.4163226 C60.4517479,26.656894 59.76143,27.6696682 58.8756373,28.3438249 C57.7882134,29.1718986 56.408347,29.4874286 55.0638816,29.0795484" id="Fill-25" fill="#FFB597"></path>
                </g>
            </g>
        </g>
    </g>
</svg>