<?xml version="1.0" encoding="UTF-8"?>
<svg width="28px" height="28px" viewBox="0 0 28 28" version="1.1" xmlns="http://www.w3.org/2000/svg" xmlns:xlink="http://www.w3.org/1999/xlink">
    <title>97196C15-8943-4BEF-8205-22608CCEE0C2</title>
    <g id="好友" stroke="none" stroke-width="1" fill="none" fill-rule="evenodd">
        <g id="朋友_KOKO-好友_邀請展開" transform="translate(-25.000000, -618.000000)" fill="#999999">
            <g id="Group" transform="translate(0.000000, 599.000000)">
                <g id="ic_tabbar_products_off" transform="translate(25.000000, 19.000000)">
                    <g id="ic_tabbar_productss_off" transform="translate(0.933333, 0.000000)">
                        <path d="M13.0322934,18.7767269 C9.2277079,18.7767269 4.02922059,17.3037741 2.35436223,15.1111782 C1.89958643,14.5158776 1.76045665,13.9258781 1.92906781,13.3074202 C2.06233851,12.8186059 2.28972641,12.6483208 2.44922344,12.5627597 C3.3006493,12.1053798 5.18959639,12.6117713 6.65259805,13.0765912 C6.94703981,15.5047592 9.28443862,16.9364195 13.0322934,16.9364195 C16.7799622,16.9364195 19.117268,15.5048522 19.4118958,13.0766842 C20.8748045,12.6118643 22.7635656,12.1057518 23.6151774,12.5626667 C23.7746744,12.6483208 24.0020623,12.8186059 24.135333,13.3074202 C24.3039442,13.9258781 24.1649074,14.5158776 23.7100386,15.1111782 C22.0351803,17.3037741 16.836786,18.7767269 13.0322934,18.7767269 Z M13.0322934,25.6855991 C7.87630766,25.5709286 6.68207943,24.504112 6.43869533,24.1795378 C5.8803162,23.4350633 4.688413,20.8442363 3.62931549,18.4126273 C6.30588963,19.8342434 10.0115219,20.6367507 13.0322934,20.6367507 C16.052879,20.6367507 19.7586042,19.8342434 22.4351784,18.4125343 C21.3761739,20.8441433 20.1842707,23.4348773 19.6257055,24.1795378 C19.3823214,24.504112 18.1880932,25.5709286 13.0322934,25.6855991 Z M17.5842365,12.5426714 C17.5842365,14.8295706 14.4008989,15.0763957 13.0322934,15.0763957 C11.663595,15.0763957 8.48016437,14.8295706 8.48016437,12.5426714 C8.48016437,10.709246 10.4370953,9.32669039 13.0322934,9.32669039 C15.6273055,9.32669039 17.5842365,10.709246 17.5842365,12.5426714 Z M24.4948756,10.9238928 C23.1529615,10.2034126 21.3243722,10.546959 19.2297995,11.1866211 C18.5170384,8.99383915 16.0897074,7.46666667 13.0322934,7.46666667 C9.97478643,7.46666667 7.54736247,8.99374614 6.83460138,11.1865281 C4.74002866,10.546959 2.91153234,10.2033196 1.56952522,10.9238928 C0.855555113,11.3070577 0.372785955,11.9443948 0.134609917,12.8181409 C-0.0798508185,13.604652 -0.0365122657,14.391628 0.253465433,15.1417756 C0.585014662,16.0168237 3.72324669,23.6589172 4.95067635,25.2955521 C6.00038074,26.6952199 8.71257433,27.4521566 13.0121122,27.5456228 C17.3518265,27.4521566 20.0640201,26.6952199 21.1137245,25.2955521 C22.3411542,23.6589172 25.4794792,16.0168237 25.8332557,15.1508897 C26.1009131,14.391628 26.1442517,13.604652 25.9297909,12.8182339 C25.6916149,11.9443018 25.2088457,11.3070577 24.4948756,10.9238928 Z" id="Fill-5"></path>
                        <path d="M5.16697983,4.00303677 C6.83198007,4.00303677 6.93214235,5.4794306 6.93521139,5.77117533 L6.93521139,5.77415136 C6.93809442,5.7770344 6.93809442,5.78298648 6.93521139,5.78298648 L6.93521139,5.78596251 L6.93521139,5.78884555 C6.94702254,6.10709561 7.20333381,6.36061684 7.52455991,6.36061684 C7.84876204,6.36061684 8.11390842,6.0982605 8.11390842,5.77415136 C8.11688446,5.47654757 8.22002278,4.00303677 9.88213998,4.00303677 L9.88502301,4.00303677 L9.89395113,4.00303677 L9.89683416,4.00303677 L9.8999032,4.00303677 C10.2151772,3.99410866 10.4714885,3.73482135 10.4714885,3.41359526 C10.4714885,3.08948612 10.2092251,2.82712977 9.88502301,2.82415374 C9.58741922,2.8212707 8.11390842,2.71813238 8.11390842,1.05610819 C8.11390842,0.731813049 7.85164508,0.466666667 7.52455991,0.466666667 C7.19747473,0.466666667 6.93521139,0.731813049 6.93521139,1.05610819 C6.93521139,2.71813238 5.46170059,2.8212707 5.1640968,2.82415374 C4.83980166,2.82712977 4.57753832,3.08948612 4.57753832,3.41359526 C4.57753832,3.74077343 4.8428707,4.00303677 5.16697983,4.00303677" id="Fill-1"></path>
                        <path d="M19.2561082,7.26961044 C20.9211084,7.26961044 21.0212707,8.74609727 21.0243397,9.03784199 L21.0243397,9.04081803 C21.0272228,9.04370107 21.0272228,9.04965314 21.0243397,9.04965314 L21.0243397,9.05253618 L21.0243397,9.05551222 C21.0360579,9.37376228 21.2924622,9.62728351 21.6136883,9.62728351 C21.9377974,9.62728351 22.2030368,9.36492716 22.2030368,9.04081803 C22.2060128,8.74312123 22.3091511,7.26961044 23.9712683,7.26961044 L23.9741514,7.26961044 L23.9829865,7.26961044 L23.9859625,7.26961044 L23.9889386,7.26961044 C24.3042126,7.26077533 24.5606168,7.00148802 24.5606168,6.68026192 C24.5606168,6.35605979 24.2983535,6.09379644 23.9741514,6.0908204 C23.6765476,6.08793737 22.2030368,5.98479905 22.2030368,4.32268185 C22.2030368,3.99847972 21.9407734,3.73333333 21.6136883,3.73333333 C21.2866031,3.73333333 21.0243397,3.99847972 21.0243397,4.32268185 C21.0243397,5.98479905 19.5508289,6.08793737 19.2531321,6.0908204 C18.92893,6.09379644 18.6666667,6.35605979 18.6666667,6.68026192 C18.6666667,7.00734709 18.9319991,7.26961044 19.2561082,7.26961044" id="Fill-3"></path>
                    </g>
                </g>
            </g>
        </g>
    </g>
</svg>