<?xml version="1.0" encoding="UTF-8"?>
<svg width="25px" height="25px" viewBox="0 0 25 25" version="1.1" xmlns="http://www.w3.org/2000/svg" xmlns:xlink="http://www.w3.org/1999/xlink">
    <title>2C6E4396-B0A0-482B-9BDD-D72E4CED9145</title>
    <g id="好友" stroke="none" stroke-width="1" fill="none" fill-rule="evenodd">
        <g id="朋友_KOKO-好友_邀請待回覆" transform="translate(-320.000000, -319.000000)" fill="#EC008C">
            <g id="Group-12" transform="translate(320.000000, 319.000000)">
                <g id="Group" transform="translate(-0.000046, 0.451652)">
                    <g id="Group-3" transform="translate(1.000000, 1.000000)">
                        <path d="M18.030951,21.5097308 C15.7929216,21.5097308 13.9714412,19.7237308 13.9714412,17.5282885 C13.9714412,15.3332981 15.7929216,13.5472981 18.030951,13.5472981 C20.2689804,13.5472981 22.0904608,15.3332981 22.0904608,17.5282885 C22.0904608,19.7237308 20.2689804,21.5097308 18.030951,21.5097308 M12.6724902,18.4230962 C11.9149608,18.6318846 11.1191863,18.7511923 10.2939216,18.7511923 C5.42757843,18.7511923 1.46898039,14.8687212 1.46898039,10.0959615 C1.46898039,8.85272115 1.74913725,7.62891346 2.30253922,6.45843269 L2.30069608,6.45075 C3.5955,3.730625 6.27772549,1.833 9.30047059,1.49948077 L9.48893137,1.4805 C9.79258824,1.45293269 10.0487843,1.44073077 10.2939216,1.44073077 C10.5395196,1.44073077 10.7957157,1.45293269 11.1044412,1.48095192 L11.2869118,1.49948077 C14.3105784,1.83345192 16.9928039,3.730625 18.2876078,6.45075 L18.2857647,6.45798077 C18.8387059,7.62800962 19.1188627,8.85181731 19.1188627,10.0959615 C19.1188627,10.8429904 19.0119608,11.5642596 18.8294902,12.2561538 C18.5682255,12.2181923 18.3028137,12.1924327 18.030951,12.1924327 C15.0307843,12.1924327 12.5900098,14.5862692 12.5900098,17.5282885 C12.5900098,17.8342404 12.6222647,18.1316058 12.672951,18.424 C12.672951,18.4235481 12.6724902,18.4235481 12.6724902,18.4230962 M20.2482451,12.6601731 L20.2528529,12.6420962 C20.2777353,12.5521635 20.3026176,12.4617788 20.3242745,12.3713942 C20.3344118,12.32575 20.391549,12.0460096 20.391549,12.0460096 C20.4081373,11.9705385 20.4242647,11.8946154 20.4380882,11.8186923 C20.4496078,11.7504519 20.4592843,11.6822115 20.4685,11.6139712 C20.4685,11.6139712 20.5136569,11.3125385 20.5205686,11.2533365 C20.528402,11.1869038 20.5334706,11.1200192 20.5385392,11.0526827 L20.5565098,10.8484135 C20.5620392,10.7919231 20.5675686,10.7354327 20.5707941,10.6784904 C20.5818529,10.4855192 20.5878431,10.2911923 20.5878431,10.0959615 C20.5878431,9.83294231 20.573098,9.54506731 20.5422255,9.21651923 C20.5422255,9.21651923 20.5247157,9.01902885 20.5173431,8.95666346 C20.4892353,8.72030769 20.4532941,8.48530769 20.4076765,8.25166346 C20.3754216,8.08219231 20.3362549,7.91588462 20.2957059,7.75002885 L20.2606863,7.61625962 C19.2289902,3.63120192 15.7459216,0.606480769 11.5937941,0.0899326923 L11.5329706,0.0808942308 C11.4016471,0.0655288462 11.269402,0.052875 11.1348529,0.0420288462 C10.8136863,0.0135576923 10.5464314,1.77635684e-15 10.2939216,1.77635684e-15 C10.0414118,1.77635684e-15 9.77415686,0.0135576923 9.45160784,0.0420288462 C9.31844118,0.052875 9.18665686,0.0655288462 9.05487255,0.0808942308 L8.9945098,0.0899326923 C4.84146078,0.606480769 1.35839216,3.63165385 0.327156863,7.61851923 L0.292598039,7.74822115 C0.252509804,7.91498077 0.212882353,8.08174038 0.180627451,8.25211538 C0.13454902,8.48530769 0.0986078431,8.72030769 0.0705,8.95621154 C0.063127451,9.024 0.0456176471,9.21651923 0.0456176471,9.21651923 C0.0142843137,9.55546154 5.08038056e-13,9.83520192 5.08038056e-13,10.0959615 C5.08038056e-13,10.2911923 0.00599019608,10.4855192 0.0170490196,10.6780385 C0.0207352941,10.7385962 0.0267254902,10.79825 0.032254902,10.8579038 L0.0483823529,11.0413846 C0.0534509804,11.1123365 0.0589803922,11.1828365 0.0672745098,11.2528846 C0.0741862745,11.3125385 0.139617647,11.7567788 0.149754902,11.8177885 C0.1645,11.8986827 0.182009804,11.979125 0.199519608,12.0595673 L0.235,12.2312981 C0.243754902,12.2778462 0.252970588,12.3248462 0.264029412,12.3709423 C0.287990196,12.4721731 0.315637255,12.5720481 0.343284314,12.6714712 L0.408715686,12.9137019 C0.440970588,13.0235192 0.477833333,13.1315288 0.514696078,13.2399904 L0.582431373,13.4424519 C0.628509804,13.5721538 0.680578431,13.6995962 0.732647059,13.8270385 L0.784254902,13.9594519 C0.841392157,14.094125 0.903598039,14.2260865 0.965803922,14.3562404 L1.01372549,14.4615385 C1.08192157,14.5989231 1.15380392,14.7326923 1.22660784,14.8660096 L1.27084314,14.9491635 C1.34871569,15.0883558 1.43165686,15.2248365 1.51551961,15.3595096 L1.55238235,15.4205192 C1.64269608,15.5619712 1.73623529,15.6998077 1.83253922,15.8353846 L1.85972549,15.8756058 C1.96017647,16.0166058 2.06477451,16.1535385 2.19056863,16.3130673 C2.30253922,16.4536154 2.41911765,16.5914519 2.54352941,16.7315481 C2.66471569,16.8675769 2.79004902,17 2.91952941,17.1315 C3.17572549,17.3895481 3.5779902,17.7565096 3.86229412,17.9883462 L3.72728431,18.0715 C1.66066667,19.5348269 1.40907843,22.0985865 1.39894118,22.213375 C1.38419608,22.4049904 1.44640196,22.5911827 1.57403922,22.7371538 C1.70167647,22.883125 1.87953922,22.97125 2.07813725,22.9866154 C2.09702941,22.9879712 2.115,22.988875 2.12467647,22.988875 L2.19932353,22.988875 C2.57993137,22.988875 2.90109804,22.6964808 2.93012745,22.3236442 C2.93197059,22.2983365 3.13517647,19.9768077 5.03545098,19.0011058 C5.05019608,18.993875 5.23911765,18.8867692 5.23911765,18.8867692 C6.17266667,19.3997019 7.21726471,19.7838365 8.28444118,19.9962404 C8.47566667,20.03375 8.67011765,20.0644808 8.86502941,20.0915962 L8.94290196,20.10425 C9.12905882,20.1282019 9.31705882,20.1449231 9.50782353,20.1593846 L9.61288235,20.1693269 C9.83820588,20.1842404 10.0653725,20.1919231 10.2939216,20.1919231 C10.5224706,20.1919231 10.7496373,20.1842404 10.9754216,20.1693269 L11.081402,20.1593846 C11.2707843,20.1449231 11.4592451,20.1282019 11.645402,20.10425 L11.7232745,20.0915962 C11.9181863,20.0644808 12.1121765,20.03375 12.3259804,19.9917212 C12.5923137,19.9383942 12.8558824,19.875125 13.1157647,19.8019135 C13.9884902,21.6087019 15.8606569,22.8645962 18.030951,22.8645962 C21.0311176,22.8645962 23.4718922,20.4707596 23.4718922,17.5282885 C23.4718922,15.3613173 22.1452941,13.494875 20.2482451,12.6601731" id="Fill-1" stroke="#EC008C" stroke-width="0.1"></path>
                        <path d="M20.1143412,16.7905692 L18.7840569,16.7905692 L18.7840569,15.4849635 C18.7840569,15.0859154 18.4610471,14.7582712 18.0541745,14.7343192 L18.0541745,14.7334154 L18.0080961,14.7334154 L18.0080961,14.7343192 C17.6016843,14.7582712 17.2786745,15.0859154 17.2786745,15.4849635 L17.2786745,16.7905692 L15.9474686,16.7905692 C15.5401353,16.7905692 15.2065275,17.1073673 15.1816451,17.5050596 L15.1807235,17.5050596 L15.1807235,17.5285596 L15.1807235,17.5511558 L15.1816451,17.5511558 C15.2065275,17.9493 15.5401353,18.26655 15.9474686,18.26655 L17.2786745,18.26655 L17.2786745,19.5717038 C17.2786745,19.9712038 17.6016843,20.2988481 18.0080961,20.3223481 L18.0080961,20.3232519 L18.0541745,20.3232519 L18.0541745,20.3223481 C18.4610471,20.2988481 18.7840569,19.9712038 18.7840569,19.5717038 L18.7840569,18.26655 L20.1143412,18.26655 C20.5216745,18.26655 20.8552824,17.9493 20.8801647,17.5511558 L20.8806255,17.5511558 L20.8806255,17.5285596 L20.8806255,17.5050596 L20.8801647,17.5050596 C20.8552824,17.1073673 20.5216745,16.7905692 20.1143412,16.7905692" id="Fill-4" stroke="#EC008C" stroke-width="0.1"></path>
                        <path d="M11.281152,12.3335683 C11.0655049,12.3661067 10.858152,12.3828279 10.6641618,12.3828279 C10.0679069,12.3828279 9.57394608,12.2318856 9.15417157,11.9218663 C8.77079902,11.6389625 8.45930882,11.2277125 8.22845588,10.6994144 L8.34042647,10.5209048 C10.0780441,10.4174144 12.3787402,10.0834433 13.59475,9.89363558 L13.7454265,10.0355394 C13.6551127,10.766751 13.2150637,12.0380106 11.281152,12.3335683 M14.4384461,12.1360779 C15.4724461,10.731049 15.1941324,8.97894327 15.182152,8.90527981 C15.1503578,8.71773173 15.041152,8.54690481 14.8821814,8.4370875 C14.7573088,8.34986635 14.6107794,8.30377019 14.4582598,8.30377019 C14.4167892,8.30377019 14.3748578,8.30738558 14.3347696,8.3137125 C14.2914559,8.32184712 9.66748529,9.11406827 7.44051471,9.11406827 C7.36678922,9.11406827 7.29536765,9.11316442 7.23362255,9.11135673 C7.00230882,9.11677981 6.80048529,9.2008375 6.66501471,9.34906827 C6.52217157,9.50452981 6.45489706,9.71331827 6.48162255,9.92075096 C6.49222059,10.0034529 6.76684804,11.9616356 8.27038725,13.0724625 C8.94681863,13.5704817 9.75180882,13.8235587 10.6623186,13.8235587 C10.932799,13.8235587 11.2171029,13.8005106 11.5069363,13.7557702 C12.8058873,13.5578279 13.7919657,13.0128087 14.4384461,12.1360779" id="Fill-6" stroke="#EC008C" stroke-width="0.1"></path>
                        <path d="M7.95622451,6.86724231 C8.48059706,6.86724231 8.90682255,6.44876154 8.90682255,5.934925 C8.90682255,5.42108846 8.48059706,5.00260769 7.95622451,5.00260769 C7.43231275,5.00260769 7.00562647,5.42108846 7.00562647,5.934925 C7.00562647,6.44876154 7.43231275,6.86724231 7.95622451,6.86724231" id="Fill-8"></path>
                        <path d="M12.1028225,6.86724231 C12.6271951,6.86724231 13.0534206,6.44876154 13.0534206,5.934925 C13.0534206,5.42108846 12.6271951,5.00260769 12.1028225,5.00260769 C11.5789108,5.00260769 11.1522245,5.42108846 11.1522245,5.934925 C11.1522245,6.44876154 11.5789108,6.86724231 12.1028225,6.86724231" id="Fill-10"></path>
                    </g>
                </g>
            </g>
        </g>
    </g>
</svg>