<?xml version="1.0" encoding="UTF-8"?>
<svg width="52px" height="54px" viewBox="0 0 52 54" version="1.1" xmlns="http://www.w3.org/2000/svg" xmlns:xlink="http://www.w3.org/1999/xlink">
    <title>4B604F18-4B1E-47FB-BF01-3E7D24F761AA</title>
    <defs>
        <path d="M0,26.06968 C0,40.42896 11.6405467,52.06968 25.9998267,52.06968 L25.9998267,52.06968 C40.3594533,52.06968 52,40.42896 52,26.06968 L52,26.06968 C52,11.7104 40.3594533,0.0698533333 25.9998267,0.0698533333 L25.9998267,0.0698533333 C11.6405467,0.0698533333 0,11.7104 0,26.06968" id="path-1"></path>
    </defs>
    <g id="好友" stroke="none" stroke-width="1" fill="none" fill-rule="evenodd">
        <g id="朋友_KOKO-好友_New-Comer" transform="translate(-293.000000, -82.000000)">
            <g id="Gray_female" transform="translate(319.000000, 109.500000) scale(-1, 1) translate(-319.000000, -109.500000) translate(293.000000, 82.000000)">
                <g id="Group-25">
                    <mask id="mask-2" fill="white">
                        <use xlink:href="#path-1"></use>
                    </mask>
                    <g id="Clip-2"></g>
                    <path d="M13.425516,39.2339307 C13.3234227,38.8964507 13.000676,38.669904 12.7522893,38.419784 C6.530316,32.1487573 11.600316,29.1249573 11.600316,29.1249573 C15.1983693,26.8166773 17.5867293,29.9904107 18.466396,31.5081173 C18.7116627,31.9313973 19.2067027,31.969184 19.6799027,31.8452507 C21.7437827,31.3053173 22.6343693,31.1921307 24.0146227,30.549064 C24.4535027,30.3443573 24.704316,29.8727173 24.6287427,29.3943173 L24.756836,27.5217973 C24.775556,27.2472373 25.0915427,27.103024 25.311156,27.2685573 L27.0996093,28.6150107 C27.3696627,28.9616773 27.821716,29.1088373 28.246036,28.9946107 C39.317876,26.0111973 46.679516,19.399744 49.9433827,15.9185173 C51.2673027,19.037304 51.9999827,22.467744 51.9999827,26.0696107 C51.9999827,40.429064 40.359436,52.0696107 25.9999827,52.0696107 C20.2070093,52.0696107 14.8572493,50.1742107 10.534836,46.9708373 C12.733396,44.820984 14.0028893,41.1421573 13.425516,39.2339307" id="Fill-1" fill="#EFEFEF" mask="url(#mask-2)"></path>
                    <path d="M-3.46666667e-05,26.069576 C-3.46666667e-05,17.186416 4.45601867,9.34516267 11.253632,4.65528267 C12.8467387,3.68080267 14.623232,2.749656 16.6047787,1.871896 C16.9004853,1.74102933 17.1942853,1.61674933 17.4870453,1.496976 C20.1542987,0.572936 23.0182853,0.069576 25.9999653,0.069576 C36.757552,0.069576 45.9889387,6.60320267 49.9433653,15.918656 C45.627712,25.101856 24.1707787,30.629456 22.1368853,31.273216 C18.862272,32.3097493 18.862272,32.3097493 18.2930453,31.5080827 C17.1195787,29.8558693 14.6010453,28.9730827 11.8471253,30.9951893 C11.8471253,30.9951893 8.44909867,33.9099627 13.3156053,38.5930827 C13.5695387,38.8374827 13.700232,39.2111893 13.8023253,39.5488427 C14.3796987,41.4570693 12.7333787,44.8211227 10.5348187,46.9708027 C4.14349867,42.2339493 -3.46666667e-05,34.636056 -3.46666667e-05,26.069576" id="Fill-4" fill="#474747" mask="url(#mask-2)"></path>
                    <path d="M33.0871667,43.47434 C31.4567933,43.4006733 29.8907267,42.61842 28.9035933,41.24718 C28.6493133,40.89358 28.7371933,40.4085933 29.1001533,40.1621133 C29.4625933,39.9163267 29.9630067,40.0029933 30.2176333,40.3559 C31.3101533,41.8734333 33.4161533,42.3608467 35.1191533,41.4924467 L35.2503667,41.4310867 C35.6429667,41.2324467 36.1281267,41.3777 36.3343933,41.7597267 C36.54118,42.1408867 36.3907267,42.6125267 35.9989933,42.8120333 L35.3989133,43.1177933 C34.4010333,43.4615133 34.0255933,43.5168067 33.0871667,43.47434" id="Fill-7" fill="#474747" mask="url(#mask-2)"></path>
                    <path d="M42.4541,35.3065093 C42.9867533,35.0548293 43.25854,34.5578827 42.9123933,34.081216 L40.9636067,31.017896 C40.6497,30.6038027 40.2439267,30.425616 39.8209933,30.7523493 C39.3909533,31.0757893 39.38454,31.608616 39.69914,32.0221893 L40.9563267,34.245016 L40.6498733,34.367736 C40.1719933,34.5977493 39.7774867,35.057776 39.99086,35.5332293 C40.2049267,36.0079893 40.7049933,36.0943093 41.1861667,35.8662027 L42.4541,35.3065093 Z" id="Fill-10" fill="#474747" mask="url(#mask-2)"></path>
                    <path d="M46.6335653,28.609152 C46.7989253,29.287752 46.382752,29.9718987 45.704152,30.1370853 C45.0253787,30.3026187 44.3410587,29.886272 44.175872,29.207672 C44.010512,28.529072 44.4268587,27.8449253 45.1054587,27.6795653 C45.784232,27.5143787 46.4682053,27.9303787 46.6335653,28.609152" id="Fill-13" fill="#474747" mask="url(#mask-2)"></path>
                    <path d="M33.899996,35.039576 C34.065356,35.718176 33.6491827,36.4023227 32.9705827,36.5675093 C32.2918093,36.7330427 31.6076627,36.316696 31.4423027,35.638096 C31.2769427,34.959496 31.6932893,34.2753493 32.3718893,34.1099893 C33.0506627,33.9448027 33.7348093,34.3608027 33.899996,35.039576" id="Fill-16" fill="#474747" mask="url(#mask-2)"></path>
                    <path d="M10.7112547,33.429292 C10.7112547,33.429292 10.5422547,39.459732 18.0895347,40.4130653 C18.0895347,40.4130653 20.725588,40.7018387 22.343308,41.4530653 C22.343308,41.4530653 28.8970413,43.7582253 26.9425347,50.142612 C26.9425347,50.142612 24.9114147,55.630172 17.6605347,52.5463987 C17.6605347,52.5463987 7.08997467,49.2759453 1.91268133,35.8757187" id="Fill-19" fill="#474747" mask="url(#mask-2)"></path>
                    <path d="M50.192324,11.76162 L56.0856573,26.0697667 L51.387804,31.70414 C51.9901373,24.5501533 48.3506573,20.0247667 48.3506573,20.0247667 C48.3506573,20.0247667 47.462324,19.1364333 46.7039907,19.9381" id="Fill-22" fill="#474747" mask="url(#mask-2)"></path>
                </g>
                <g id="Group-37" transform="translate(0.173333, 28.383653)" fill="#474747">
                    <g id="Group-36" transform="translate(0.000000, 0.840000)">
                        <path d="M10.5379213,4.309292 C10.5379213,4.309292 10.3689213,10.339732 17.9162013,11.2930653 C17.9162013,11.2930653 20.5522547,11.5818387 22.1699747,12.3330653 C22.1699747,12.3330653 29.5269347,14.7885053 27.5722547,21.1730653 C27.5722547,21.1730653 25.8066813,27.0663987 17.4872013,23.4263987 C17.4872013,23.4263987 1.485588,18.3130653 0.0195346667,0.133172" id="Fill-34"></path>
                    </g>
                </g>
            </g>
        </g>
    </g>
</svg>