<?xml version="1.0" encoding="UTF-8"?>
<svg width="28px" height="28px" viewBox="0 0 28 28" version="1.1" xmlns="http://www.w3.org/2000/svg" xmlns:xlink="http://www.w3.org/1999/xlink">
    <title>0C877BA6-EEA6-4CC3-9605-0035C2FBB4E2</title>
    <g id="好友" stroke="none" stroke-width="1" fill="none" fill-rule="evenodd">
        <g id="朋友_KOKO-好友_邀請展開" transform="translate(-248.000000, -618.000000)" fill="#999999">
            <g id="Group" transform="translate(0.000000, 599.000000)">
                <g id="ic_tabbar_manage_off" transform="translate(248.000000, 19.000000)">
                    <g transform="translate(0.933333, 0.933333)">
                        <path d="M4.24944747,5.22936585 L5.13515144,5.22936585 L5.13515144,4.34366188 C5.13515144,3.8442756 5.5403139,3.43911314 6.03970018,3.43911314 C6.53918069,3.43911314 6.94434314,3.8442756 6.94434314,4.34366188 L6.94434314,5.22936585 L7.82995289,5.22936585 C8.32943339,5.22936585 8.73459585,5.6345283 8.73459585,6.13391458 C8.73459585,6.63330087 8.32943339,7.03846332 7.82995289,7.03846332 L6.94434314,7.03846332 L6.94434314,7.92416729 C6.94434314,8.42355357 6.53918069,8.82871603 6.03970018,8.82871603 C5.5403139,8.82871603 5.13515144,8.42355357 5.13515144,7.92416729 L5.13515144,7.03846332 L4.24944747,7.03846332 C3.75006119,7.03846332 3.34489874,6.63330087 3.34489874,6.13391458 C3.34489874,5.6345283 3.75006119,5.22936585 4.24944747,5.22936585" id="Fill-1"></path>
                        <path d="M6.0397944,10.3173677 C3.73724675,10.3173677 1.86464242,8.44466913 1.86464242,6.14230993 C1.86464242,3.8398565 3.73724675,1.96715794 6.0397944,1.96715794 C8.34224783,1.96715794 10.2148522,3.8398565 10.2148522,6.14230993 C10.2148522,8.437037 8.34224783,10.3173677 6.0397944,10.3173677 M6.0397944,0.0941767148 C2.7112435,0.0941767148 -4.71119138e-05,2.8053731 -4.71119138e-05,6.13392401 C-4.71119138e-05,9.46247491 2.7112435,12.1736713 6.0397944,12.1736713 C9.36825108,12.1736713 12.0795417,9.46247491 12.0795417,6.13392401 C12.0795417,2.8053731 9.36825108,0.0941767148 6.0397944,0.0941767148" id="Fill-3"></path>
                        <path d="M17.3516444,6.13392401 C17.3516444,5.63453773 17.7569011,5.22937527 18.2562874,5.22937527 L21.8367928,5.22937527 C22.3360848,5.22937527 22.7412473,5.63453773 22.7412473,6.13392401 C22.7412473,6.63331029 22.3360848,7.03847274 21.8367928,7.03847274 L18.2562874,7.03847274 C17.7569011,7.03847274 17.3516444,6.63331029 17.3516444,6.13392401" id="Fill-6"></path>
                        <path d="M20.0465024,10.3173677 C17.7439547,10.3173677 15.8713504,8.44466913 15.8713504,6.14230993 C15.8713504,3.8398565 17.7439547,1.96715794 20.0465024,1.96715794 C22.3489558,1.96715794 24.2216544,3.8398565 24.2216544,6.14230993 C24.2216544,8.437037 22.3489558,10.3173677 20.0465024,10.3173677 M20.0465024,0.0941767148 C16.7179515,0.0941767148 14.0066609,2.8053731 14.0066609,6.13392401 C14.0066609,9.46247491 16.7179515,12.1736713 20.0465024,12.1736713 C23.3749591,12.1736713 26.0862497,9.46247491 26.0862497,6.13392401 C26.0862497,2.8053731 23.3749591,0.0941767148 20.0465024,0.0941767148" id="Fill-8"></path>
                        <path d="M18.2562497,19.636299 L21.8367551,19.636299 C22.3361414,19.636299 22.7413038,19.2311365 22.7413038,18.7317502 C22.7413038,18.2323639 22.3361414,17.8272015 21.8367551,17.8272015 L18.2562497,17.8272015 C17.7568634,17.8272015 17.3516067,18.2323639 17.3516067,18.7317502 C17.3516067,19.2311365 17.7568634,19.636299 18.2562497,19.636299" id="Fill-11"></path>
                        <path d="M21.8367551,20.4920869 L18.2562497,20.4920869 C17.7568634,20.4920869 17.3516067,20.8972493 17.3516067,21.3966356 C17.3516067,21.8960219 17.7568634,22.3011843 18.2562497,22.3011843 L21.8367551,22.3011843 C22.3361414,22.3011843 22.7413038,21.8960219 22.7413038,21.3966356 C22.7413038,20.8972493 22.3361414,20.4920869 21.8367551,20.4920869" id="Fill-13"></path>
                        <path d="M20.0465024,24.247613 C17.7439547,24.247613 15.8713504,22.3749145 15.8713504,20.0725553 C15.8713504,17.7701019 17.7439547,15.8974033 20.0465024,15.8974033 C22.3489558,15.8974033 24.2216544,17.7701019 24.2216544,20.0725553 C24.2216544,22.3672824 22.3489558,24.247613 20.0465024,24.247613 M20.0465024,14.0244221 C16.7179515,14.0244221 14.0066609,16.7356185 14.0066609,20.0641694 C14.0066609,23.3927203 16.7179515,26.1039167 20.0465024,26.1039167 C23.3749591,26.1039167 26.0862497,23.3927203 26.0862497,20.0641694 C26.0862497,16.7356185 23.3749591,14.0244221 20.0465024,14.0244221" id="Fill-15"></path>
                        <path d="M6.0397944,24.247613 C3.73724675,24.247613 1.86464242,22.3749145 1.86464242,20.0725553 C1.86464242,17.7701019 3.73724675,15.8974033 6.0397944,15.8974033 C8.34224783,15.8974033 10.2148522,17.7701019 10.2148522,20.0725553 C10.2148522,22.3672824 8.34224783,24.247613 6.0397944,24.247613 M6.0397944,14.0244221 C2.7112435,14.0244221 -4.71119138e-05,16.7356185 -4.71119138e-05,20.0641694 C-4.71119138e-05,23.3927203 2.7112435,26.1039167 6.0397944,26.1039167 C9.36825108,26.1039167 12.0795417,23.3927203 12.0795417,20.0641694 C12.0795417,16.7356185 9.36825108,14.0244221 6.0397944,14.0244221" id="Fill-18"></path>
                        <path d="M4.13424,20.6904751 L4.76045155,20.0641694 L4.13424,19.4379578 C3.7810891,19.0848069 3.7810891,18.5118318 4.13424,18.1586809 C4.4873909,17.80553 5.06036599,17.80553 5.41342267,18.1586809 L6.03982267,18.7849867 L6.66603422,18.1586809 C7.0190909,17.80553 7.59216022,17.80553 7.9452169,18.1586809 C8.2983678,18.5117376 8.2983678,19.0847127 7.9452169,19.4379578 L7.31900534,20.0641694 L7.9452169,20.6904751 C8.2983678,21.043626 8.2983678,21.6166011 7.9452169,21.969752 C7.59206599,22.3228087 7.0190909,22.3228087 6.66603422,21.969752 L6.03982267,21.3434463 L5.41342267,21.969752 C5.06036599,22.3228087 4.4873909,22.3228087 4.13424,21.969752 C3.7810891,21.6166011 3.7810891,21.043626 4.13424,20.6904751" id="Fill-21"></path>
                    </g>
                </g>
            </g>
        </g>
    </g>
</svg>