<?xml version="1.0" encoding="UTF-8"?>
<svg width="28px" height="28px" viewBox="0 0 28 28" version="1.1" xmlns="http://www.w3.org/2000/svg" xmlns:xlink="http://www.w3.org/1999/xlink">
    <title>44325032-921E-4913-90BA-82D0A96A2E6A</title>
    <defs>
        <linearGradient x1="24.087572%" y1="24.2499485%" x2="114.534505%" y2="112.721356%" id="linearGradient-1">
            <stop stop-color="#EC008C" offset="0%"></stop>
            <stop stop-color="#FF4747" offset="76.0190838%"></stop>
            <stop stop-color="#FFDE03" offset="100%"></stop>
        </linearGradient>
        <linearGradient x1="24.225511%" y1="24.2250029%" x2="114.19097%" y2="112.782118%" id="linearGradient-2">
            <stop stop-color="#EC008C" offset="0%"></stop>
            <stop stop-color="#FF4747" offset="76.0190838%"></stop>
            <stop stop-color="#FFDE03" offset="100%"></stop>
        </linearGradient>
        <linearGradient x1="24.087572%" y1="24.2250029%" x2="114.534505%" y2="112.782118%" id="linearGradient-3">
            <stop stop-color="#EC008C" offset="0%"></stop>
            <stop stop-color="#FF4747" offset="76.0190838%"></stop>
            <stop stop-color="#FFDE03" offset="100%"></stop>
        </linearGradient>
        <linearGradient x1="24.087572%" y1="38.9915598%" x2="114.534505%" y2="76.8140939%" id="linearGradient-4">
            <stop stop-color="#EC008C" offset="0%"></stop>
            <stop stop-color="#FF4747" offset="76.0190838%"></stop>
            <stop stop-color="#FFDE03" offset="100%"></stop>
        </linearGradient>
    </defs>
    <g id="好友" stroke="none" stroke-width="1" fill="none" fill-rule="evenodd">
        <g id="朋友_KOKO-好友_邀請展開" transform="translate(-99.000000, -618.000000)">
            <g id="Group" transform="translate(0.000000, 599.000000)">
                <g id="ic_tabbar_friends_on" transform="translate(99.000000, 19.000000)">
                    <g id="Group-16" transform="translate(0.560000, 0.560000)">
                        <path d="M22.8102,3.29485333 C22.2782,3.29485333 21.8460667,3.72605333 21.8460667,4.25898667 C21.8460667,4.79098667 22.2782,5.22218667 22.8102,5.22218667 C23.3422,5.22218667 23.7743333,4.79098667 23.7743333,4.25898667 C23.7743333,3.72605333 23.3422,3.29485333 22.8102,3.29485333" id="Fill-1" fill="url(#linearGradient-1)"></path>
                        <path d="M19.7244133,3.29485333 C19.1924133,3.29485333 18.76028,3.72605333 18.76028,4.25898667 C18.76028,4.79098667 19.1924133,5.22218667 19.7244133,5.22218667 C20.2564133,5.22218667 20.6885467,4.79098667 20.6885467,4.25898667 C20.6885467,3.72605333 20.2564133,3.29485333 19.7244133,3.29485333" id="Fill-3" fill="url(#linearGradient-1)"></path>
                        <path d="M16.6386267,3.29485333 C16.1066267,3.29485333 15.6744933,3.72605333 15.6744933,4.25898667 C15.6744933,4.79098667 16.1066267,5.22218667 16.6386267,5.22218667 C17.1706267,5.22218667 17.60276,4.79098667 17.60276,4.25898667 C17.60276,3.72605333 17.1706267,3.29485333 16.6386267,3.29485333" id="Fill-5" fill="url(#linearGradient-1)"></path>
                        <path d="M25.2132533,5.63509333 C25.2132533,6.38829333 24.6000533,7.00056 23.8477867,7.00056 L19.72432,7.00056 C19.39952,7.00056 19.0849867,7.09669333 18.7452533,7.33189333 L17.5617867,8.32682667 L17.5841867,8.18122667 C17.63832,7.89749333 17.5673867,7.60722667 17.38632,7.37949333 C17.19592,7.13869333 16.9112533,7.00056 16.6041867,7.00056 L15.6008533,7.00056 C14.8485867,7.00056 14.2353867,6.38829333 14.2353867,5.63509333 L14.2353867,3.04602667 C14.2353867,2.29282667 14.8485867,1.67962667 15.6008533,1.67962667 L23.8477867,1.67962667 C24.6000533,1.67962667 25.2132533,2.29282667 25.2132533,3.04602667 L25.2132533,5.63509333 Z M10.1249867,22.34456 C5.46858667,22.34456 1.68018667,18.55616 1.68018667,13.89976 C1.68018667,9.24336 5.46858667,5.45496 10.1249867,5.45496 C10.8921867,5.45496 11.6528533,5.55762667 12.38552,5.76016 C12.44712,5.77789333 12.5077867,5.77136 12.5693867,5.77322667 C12.6440533,7.38789333 13.9693867,8.68056 15.6008533,8.68056 L15.80712,8.68056 L15.5588533,10.2812267 C15.5056533,10.62656 15.6717867,10.9690933 15.9769867,11.1408267 C16.1057867,11.2136267 16.2485867,11.2490933 16.38952,11.2490933 C16.58272,11.2490933 16.7749867,11.1828267 16.92992,11.05216 L17.76992,10.34656 C18.28512,11.4562933 18.5697867,12.6668267 18.5697867,13.89976 C18.5697867,18.55616 14.7813867,22.34456 10.1249867,22.34456 L10.1249867,22.34456 Z M23.8477867,-0.000373333333 L15.6008533,-0.000373333333 C13.9217867,-0.000373333333 12.5553867,1.36602667 12.5553867,3.04602667 L12.5553867,4.08482667 C11.7620533,3.88882667 10.9481867,3.77496 10.1249867,3.77496 C4.54178667,3.77496 0.000186666665,8.31749333 0.000186666665,13.89976 C0.000186666665,17.04696 1.44405333,19.8628267 3.70272,21.7210933 C1.66805333,23.21816 1.43098667,25.9350933 1.42072,26.06016 C1.38618667,26.5230933 1.73245333,26.9262933 2.19445333,26.96176 C2.21592,26.9636267 2.23832,26.96456 2.25978667,26.96456 C2.69472,26.96456 3.06245333,26.6294933 3.09605333,26.1880267 C3.09792,26.16376 3.30138667,23.7604267 5.07658667,22.8308267 C5.12325333,22.80656 5.15405333,22.7664267 5.19418667,22.7346933 C6.65485333,23.5532267 8.33485333,24.02456 10.1249867,24.02456 C11.9300533,24.02456 13.62312,23.5438933 15.0921867,22.7122933 C15.1397867,22.75336 15.17992,22.80096 15.2377867,22.8308267 C16.9877867,23.74736 17.2145867,26.1450933 17.21832,26.1908267 C17.2528533,26.6304267 17.6205867,26.96456 18.0545867,26.96456 C18.0760533,26.96456 18.09752,26.9636267 18.11992,26.96176 C18.5828533,26.9262933 18.92912,26.52216 18.8936533,26.06016 C18.8833867,25.93416 18.6444533,23.18736 16.57712,21.69496 C18.8189867,19.8366933 20.2497867,17.0320267 20.2497867,13.89976 C20.2497867,12.27016 19.83912,10.67136 19.0924533,9.23496 L19.75232,8.68056 L23.8477867,8.68056 C25.5268533,8.68056 26.8932533,7.31416 26.8932533,5.63509333 L26.8932533,3.04602667 C26.8932533,1.36602667 25.5268533,-0.000373333333 23.8477867,-0.000373333333 L23.8477867,-0.000373333333 Z" id="Fill-7" fill="url(#linearGradient-2)"></path>
                        <path d="M8.36808,10.829 C8.94861333,10.829 9.41808,10.3586 9.41808,9.779 C9.41808,9.19846667 8.94861333,8.729 8.36808,8.729 C7.78754667,8.729 7.31808,9.19846667 7.31808,9.779 C7.31808,10.3586 7.78754667,10.829 8.36808,10.829" id="Fill-10" fill="url(#linearGradient-3)"></path>
                        <path d="M12.3954133,10.829 C12.9759467,10.829 13.4454133,10.3586 13.4454133,9.779 C13.4454133,9.19846667 12.9759467,8.729 12.3954133,8.729 C11.81488,8.729 11.3454133,9.19846667 11.3454133,9.779 C11.3454133,10.3586 11.81488,10.829 12.3954133,10.829" id="Fill-12" fill="url(#linearGradient-3)"></path>
                        <path d="M11.15576,15.6064533 C10.6442933,15.99192 9.99936,16.1160533 9.18549333,15.9900533 C7.46069333,15.7212533 6.99682667,14.63392 6.89882667,13.82472 C8.14389333,14.0225867 10.3456267,14.34552 12.0144267,14.4472533 C11.8436267,14.8457867 11.5738933,15.29192 11.15576,15.6064533 M13.1008267,12.7980533 C11.0568267,12.85312 6.27256,12.0196533 6.22402667,12.01032 C6.00376,11.9720533 5.77789333,12.0233867 5.59496,12.15312 C5.41296,12.28192 5.28882667,12.4788533 5.25242667,12.7000533 C5.24029333,12.77472 4.95656,14.55272 5.99722667,15.99472 C6.64496,16.89072 7.62962667,17.44792 8.92696,17.64952 C9.21629333,17.6952533 9.49629333,17.7176533 9.76696,17.7176533 C10.68256,17.7176533 11.48616,17.4600533 12.16656,16.9485867 C13.67576,15.8117867 13.9426933,13.8265867 13.9538933,13.7425867 C13.98376,13.5008533 13.9072267,13.25632 13.7438933,13.0752533 C13.58056,12.8932533 13.3434933,12.8036533 13.1008267,12.7980533" id="Fill-14" fill="url(#linearGradient-4)"></path>
                    </g>
                </g>
            </g>
        </g>
    </g>
</svg>