<?xml version="1.0" encoding="UTF-8"?>
<svg width="24px" height="24px" viewBox="0 0 24 24" version="1.1" xmlns="http://www.w3.org/2000/svg" xmlns:xlink="http://www.w3.org/1999/xlink">
    <title>AAD43CCC-5361-4F79-9A80-9B3951C04E4C</title>
    <g id="好友" stroke="none" stroke-width="1" fill="none" fill-rule="evenodd">
        <g id="朋友_KOKO-好友_New-Comer" transform="translate(-68.000000, -31.000000)">
            <g id="ic_nav_pink_transfer" transform="translate(63.300000, 25.800000)">
                <path d="M18.3305523,16.9758662 C17.7975114,16.4915629 17.0865782,16.2247776 16.3287087,16.2247776 C15.7169459,16.2247776 15.2192927,15.7775572 15.2192927,15.2279879 C15.2192927,14.6783126 15.7169459,14.2311982 16.3287087,14.2311982 C16.7076964,14.2311982 16.9524439,14.2871404 17.3185056,14.6055241 C17.4824122,14.7473928 17.6901827,14.8224063 17.9192494,14.8224063 C18.1553088,14.8224063 18.3760054,14.7377513 18.5407596,14.5840159 C18.6997925,14.4355782 18.7804214,14.2544015 18.7804214,14.0456774 C18.7804214,13.8455355 18.689939,13.6661599 18.5198872,13.5278935 C18.1228878,13.1837637 17.8324753,13.0476163 17.3689384,12.8885834 L17.1898807,12.8272376 L17.1898807,12.4268477 C17.1898807,12.0140615 16.8035823,11.6783019 16.3287087,11.6783019 C15.853835,11.6783019 15.4675366,12.0140615 15.4675366,12.4268477 L15.4675366,12.8409054 L15.2891146,12.9024631 C14.2172055,13.2725509 13.4969486,14.2127626 13.4969486,15.2420794 C13.4969486,16.6249556 14.7610534,17.7501583 16.3147231,17.7501583 C16.9263799,17.7501583 17.4240331,18.1972727 17.4240331,18.746948 C17.4240331,19.2965173 16.9263799,19.7437377 16.3147231,19.7437377 C15.8576492,19.7437377 15.3741935,19.4942224 14.9530371,19.0407509 C14.7933686,18.8703812 14.5508461,18.7725882 14.287769,18.7725882 C14.0803164,18.7725882 13.8823994,18.838278 13.7307831,18.9572613 C13.5485469,19.0967991 13.4457741,19.2721485 13.4250077,19.4783297 C13.4051948,19.6671349 13.4748048,19.8574234 13.6213354,20.0145492 C14.1117839,20.5321212 14.6820138,20.9071888 15.2706791,21.0991725 L15.4534451,21.1587171 L15.4534451,21.5761652 C15.4534451,21.9888455 15.8397435,22.324711 16.3147231,22.324711 C16.7894908,22.324711 17.1758951,21.9888455 17.1758951,21.5761652 L17.1758951,21.1623195 L17.3543171,21.1006558 C18.4262263,20.730568 19.1463772,19.7903562 19.1463772,18.7610395 C19.1463772,18.087825 18.8567064,17.4539185 18.3305523,16.9758662" id="Fill-1" fill="#EC008C"></path>
                <g id="Group" transform="translate(16.628532, 17.028532) rotate(1.000000) translate(-16.628532, -17.028532) translate(0.528532, 0.928532)" stroke="#EC008C" stroke-linecap="round" stroke-width="1.6">
                    <path d="M12.6741481,5.59879654 C8.23418276,7.07929689 5.03125,11.2901556 5.03125,16.2536125 C5.03125,22.4515522 10.0255428,27.4759751 16.1863153,27.4759751 M19.7790098,26.8812313 C24.1771236,25.3768996 27.3413806,21.1870113 27.3413806,16.2536125 C27.3413806,10.0556728 22.3538352,5.10204483 16.1863153,5.03125" id="Oval-8" transform="translate(16.186315, 16.253613) rotate(330.000000) translate(-16.186315, -16.253613) "></path>
                    <polyline id="Rectangle" stroke-linejoin="round" transform="translate(7.407004, 9.227780) rotate(310.000000) translate(-7.407004, -9.227780) " points="6.29149728 6.98330769 8.52251034 9.2277802 6.29149728 11.4722527"></polyline>
                    <polyline id="Rectangle" stroke-linejoin="round" transform="translate(24.965627, 23.279445) scale(-1, -1) rotate(-60.000000) translate(-24.965627, -23.279445) " points="23.8501203 21.0349724 26.0811333 23.2794449 23.8501203 25.5239174"></polyline>
                </g>
            </g>
        </g>
    </g>
</svg>